<svg xmlns="http://www.w3.org/2000/svg" version="1.1" xmlns:xlink="http://www.w3.org/1999/xlink" xmlns:svgjs="http://svgjs.dev/svgjs" width="1440" height="560" preserveAspectRatio="none" viewBox="0 0 1440 560"><g mask="url(&quot;#SvgjsMask1000&quot;)" fill="none"><rect width="1440" height="560" x="0" y="0" fill="#0e2a47"></rect><path d="M93.91 80.76L158.87 118.26L158.87 193.26L93.91 230.76L28.96 193.26L28.96 118.26zM28.96 193.26L93.91 230.76L93.91 305.76L28.96 343.26L-35.99 305.76L-35.99 230.76zM93.91 305.76L158.87 343.26L158.87 418.26L93.91 455.76L28.96 418.26L28.96 343.26zM158.87 -31.74L223.82 5.76L223.82 80.76L158.87 118.26L93.91 80.76L93.91 5.76zM288.77 193.26L353.73 230.76L353.73 305.76L288.77 343.26L223.82 305.76L223.82 230.76zM483.64 80.76L548.59 118.26L548.59 193.26L483.64 230.76L418.68 193.26L418.68 118.26zM418.68 193.26L483.64 230.76L483.64 305.76L418.68 343.26L353.73 305.76L353.73 230.76zM483.64 530.76L548.59 568.26L548.59 643.26L483.64 680.76L418.68 643.26L418.68 568.26zM613.54 80.76L678.5 118.26L678.5 193.26L613.54 230.76L548.59 193.26L548.59 118.26zM613.54 305.76L678.5 343.26L678.5 418.26L613.54 455.76L548.59 418.26L548.59 343.26zM548.59 418.26L613.54 455.76L613.54 530.76L548.59 568.26L483.64 530.76L483.64 455.76zM613.54 530.76L678.5 568.26L678.5 643.26L613.54 680.76L548.59 643.26L548.59 568.26zM678.5 -31.74L743.45 5.76L743.45 80.76L678.5 118.26L613.54 80.76L613.54 5.76zM743.45 530.76L808.41 568.26L808.41 643.26L743.45 680.76L678.5 643.26L678.5 568.26zM808.4 -31.74L873.36 5.76L873.36 80.76L808.4 118.26L743.45 80.76L743.45 5.76zM873.36 305.76L938.31 343.26L938.31 418.26L873.36 455.76L808.4 418.26L808.4 343.26zM873.36 530.76L938.31 568.26L938.31 643.26L873.36 680.76L808.4 643.26L808.4 568.26zM938.31 -31.74L1003.27 5.76L1003.27 80.76L938.31 118.26L873.36 80.76L873.36 5.76zM1003.27 80.76L1068.22 118.26L1068.22 193.26L1003.27 230.76L938.31 193.26L938.31 118.26zM938.31 193.26L1003.27 230.76L1003.27 305.76L938.31 343.26L873.36 305.76L873.36 230.76zM1003.27 530.76L1068.22 568.26L1068.22 643.26L1003.27 680.76L938.31 643.26L938.31 568.26zM1068.22 -31.74L1133.17 5.76L1133.17 80.76L1068.22 118.26L1003.27 80.76L1003.27 5.76zM1068.22 193.26L1133.17 230.76L1133.17 305.76L1068.22 343.26L1003.27 305.76L1003.27 230.76zM1068.22 418.26L1133.17 455.76L1133.17 530.76L1068.22 568.26L1003.27 530.76L1003.27 455.76zM1133.17 530.76L1198.13 568.26L1198.13 643.26L1133.17 680.76L1068.22 643.26L1068.22 568.26zM1198.13 -31.74L1263.08 5.76L1263.08 80.76L1198.13 118.26L1133.17 80.76L1133.17 5.76zM1263.08 80.76L1328.03 118.26L1328.03 193.26L1263.08 230.76L1198.13 193.26L1198.13 118.26zM1198.13 193.26L1263.08 230.76L1263.08 305.76L1198.13 343.26L1133.17 305.76L1133.17 230.76zM1198.13 418.26L1263.08 455.76L1263.08 530.76L1198.13 568.26L1133.17 530.76L1133.17 455.76zM1392.99 80.76L1457.94 118.26L1457.94 193.26L1392.99 230.76L1328.04 193.26L1328.04 118.26zM1457.94 -31.74L1522.9 5.76L1522.9 80.76L1457.94 118.26L1392.99 80.76L1392.99 5.76zM1457.94 193.26L1522.9 230.76L1522.9 305.76L1457.94 343.26L1392.99 305.76L1392.99 230.76zM1522.9 305.76L1587.85 343.26L1587.85 418.26L1522.9 455.76L1457.94 418.26L1457.94 343.26zM1522.9 530.76L1587.85 568.26L1587.85 643.26L1522.9 680.76L1457.94 643.26L1457.94 568.26z" stroke="#03305d" stroke-width="2"></path><path d="M86.41 80.76 a7.5 7.5 0 1 0 15 0 a7.5 7.5 0 1 0 -15 0zM151.37 118.26 a7.5 7.5 0 1 0 15 0 a7.5 7.5 0 1 0 -15 0zM151.37 193.26 a7.5 7.5 0 1 0 15 0 a7.5 7.5 0 1 0 -15 0zM86.41 230.76 a7.5 7.5 0 1 0 15 0 a7.5 7.5 0 1 0 -15 0zM21.46 193.26 a7.5 7.5 0 1 0 15 0 a7.5 7.5 0 1 0 -15 0zM21.46 118.26 a7.5 7.5 0 1 0 15 0 a7.5 7.5 0 1 0 -15 0zM86.41 305.76 a7.5 7.5 0 1 0 15 0 a7.5 7.5 0 1 0 -15 0zM21.46 343.26 a7.5 7.5 0 1 0 15 0 a7.5 7.5 0 1 0 -15 0zM-43.49 305.76 a7.5 7.5 0 1 0 15 0 a7.5 7.5 0 1 0 -15 0zM-43.49 230.76 a7.5 7.5 0 1 0 15 0 a7.5 7.5 0 1 0 -15 0zM151.37 343.26 a7.5 7.5 0 1 0 15 0 a7.5 7.5 0 1 0 -15 0zM151.37 418.26 a7.5 7.5 0 1 0 15 0 a7.5 7.5 0 1 0 -15 0zM86.41 455.76 a7.5 7.5 0 1 0 15 0 a7.5 7.5 0 1 0 -15 0zM21.46 418.26 a7.5 7.5 0 1 0 15 0 a7.5 7.5 0 1 0 -15 0zM151.37 -31.74 a7.5 7.5 0 1 0 15 0 a7.5 7.5 0 1 0 -15 0zM216.32 5.76 a7.5 7.5 0 1 0 15 0 a7.5 7.5 0 1 0 -15 0zM216.32 80.76 a7.5 7.5 0 1 0 15 0 a7.5 7.5 0 1 0 -15 0zM86.41 5.76 a7.5 7.5 0 1 0 15 0 a7.5 7.5 0 1 0 -15 0zM281.27 193.26 a7.5 7.5 0 1 0 15 0 a7.5 7.5 0 1 0 -15 0zM346.23 230.76 a7.5 7.5 0 1 0 15 0 a7.5 7.5 0 1 0 -15 0zM346.23 305.76 a7.5 7.5 0 1 0 15 0 a7.5 7.5 0 1 0 -15 0zM281.27 343.26 a7.5 7.5 0 1 0 15 0 a7.5 7.5 0 1 0 -15 0zM216.32 305.76 a7.5 7.5 0 1 0 15 0 a7.5 7.5 0 1 0 -15 0zM216.32 230.76 a7.5 7.5 0 1 0 15 0 a7.5 7.5 0 1 0 -15 0zM476.14 80.76 a7.5 7.5 0 1 0 15 0 a7.5 7.5 0 1 0 -15 0zM541.09 118.26 a7.5 7.5 0 1 0 15 0 a7.5 7.5 0 1 0 -15 0zM541.09 193.26 a7.5 7.5 0 1 0 15 0 a7.5 7.5 0 1 0 -15 0zM476.14 230.76 a7.5 7.5 0 1 0 15 0 a7.5 7.5 0 1 0 -15 0zM411.18 193.26 a7.5 7.5 0 1 0 15 0 a7.5 7.5 0 1 0 -15 0zM411.18 118.26 a7.5 7.5 0 1 0 15 0 a7.5 7.5 0 1 0 -15 0zM476.14 305.76 a7.5 7.5 0 1 0 15 0 a7.5 7.5 0 1 0 -15 0zM411.18 343.26 a7.5 7.5 0 1 0 15 0 a7.5 7.5 0 1 0 -15 0zM476.14 530.76 a7.5 7.5 0 1 0 15 0 a7.5 7.5 0 1 0 -15 0zM541.09 568.26 a7.5 7.5 0 1 0 15 0 a7.5 7.5 0 1 0 -15 0zM541.09 643.26 a7.5 7.5 0 1 0 15 0 a7.5 7.5 0 1 0 -15 0zM476.14 680.76 a7.5 7.5 0 1 0 15 0 a7.5 7.5 0 1 0 -15 0zM411.18 643.26 a7.5 7.5 0 1 0 15 0 a7.5 7.5 0 1 0 -15 0zM411.18 568.26 a7.5 7.5 0 1 0 15 0 a7.5 7.5 0 1 0 -15 0zM606.04 80.76 a7.5 7.5 0 1 0 15 0 a7.5 7.5 0 1 0 -15 0zM671 118.26 a7.5 7.5 0 1 0 15 0 a7.5 7.5 0 1 0 -15 0zM671 193.26 a7.5 7.5 0 1 0 15 0 a7.5 7.5 0 1 0 -15 0zM606.04 230.76 a7.5 7.5 0 1 0 15 0 a7.5 7.5 0 1 0 -15 0zM606.04 305.76 a7.5 7.5 0 1 0 15 0 a7.5 7.5 0 1 0 -15 0zM671 343.26 a7.5 7.5 0 1 0 15 0 a7.5 7.5 0 1 0 -15 0zM671 418.26 a7.5 7.5 0 1 0 15 0 a7.5 7.5 0 1 0 -15 0zM606.04 455.76 a7.5 7.5 0 1 0 15 0 a7.5 7.5 0 1 0 -15 0zM541.09 418.26 a7.5 7.5 0 1 0 15 0 a7.5 7.5 0 1 0 -15 0zM541.09 343.26 a7.5 7.5 0 1 0 15 0 a7.5 7.5 0 1 0 -15 0zM606.04 530.76 a7.5 7.5 0 1 0 15 0 a7.5 7.5 0 1 0 -15 0zM476.14 455.76 a7.5 7.5 0 1 0 15 0 a7.5 7.5 0 1 0 -15 0zM671 568.26 a7.5 7.5 0 1 0 15 0 a7.5 7.5 0 1 0 -15 0zM671 643.26 a7.5 7.5 0 1 0 15 0 a7.5 7.5 0 1 0 -15 0zM606.04 680.76 a7.5 7.5 0 1 0 15 0 a7.5 7.5 0 1 0 -15 0zM671 -31.74 a7.5 7.5 0 1 0 15 0 a7.5 7.5 0 1 0 -15 0zM735.95 5.76 a7.5 7.5 0 1 0 15 0 a7.5 7.5 0 1 0 -15 0zM735.95 80.76 a7.5 7.5 0 1 0 15 0 a7.5 7.5 0 1 0 -15 0zM606.04 5.76 a7.5 7.5 0 1 0 15 0 a7.5 7.5 0 1 0 -15 0zM735.95 530.76 a7.5 7.5 0 1 0 15 0 a7.5 7.5 0 1 0 -15 0zM800.91 568.26 a7.5 7.5 0 1 0 15 0 a7.5 7.5 0 1 0 -15 0zM800.91 643.26 a7.5 7.5 0 1 0 15 0 a7.5 7.5 0 1 0 -15 0zM735.95 680.76 a7.5 7.5 0 1 0 15 0 a7.5 7.5 0 1 0 -15 0zM800.9 -31.74 a7.5 7.5 0 1 0 15 0 a7.5 7.5 0 1 0 -15 0zM865.86 5.76 a7.5 7.5 0 1 0 15 0 a7.5 7.5 0 1 0 -15 0zM865.86 80.76 a7.5 7.5 0 1 0 15 0 a7.5 7.5 0 1 0 -15 0zM800.9 118.26 a7.5 7.5 0 1 0 15 0 a7.5 7.5 0 1 0 -15 0zM865.86 305.76 a7.5 7.5 0 1 0 15 0 a7.5 7.5 0 1 0 -15 0zM930.81 343.26 a7.5 7.5 0 1 0 15 0 a7.5 7.5 0 1 0 -15 0zM930.81 418.26 a7.5 7.5 0 1 0 15 0 a7.5 7.5 0 1 0 -15 0zM865.86 455.76 a7.5 7.5 0 1 0 15 0 a7.5 7.5 0 1 0 -15 0zM800.9 418.26 a7.5 7.5 0 1 0 15 0 a7.5 7.5 0 1 0 -15 0zM800.9 343.26 a7.5 7.5 0 1 0 15 0 a7.5 7.5 0 1 0 -15 0zM865.86 530.76 a7.5 7.5 0 1 0 15 0 a7.5 7.5 0 1 0 -15 0zM930.81 568.26 a7.5 7.5 0 1 0 15 0 a7.5 7.5 0 1 0 -15 0zM930.81 643.26 a7.5 7.5 0 1 0 15 0 a7.5 7.5 0 1 0 -15 0zM865.86 680.76 a7.5 7.5 0 1 0 15 0 a7.5 7.5 0 1 0 -15 0zM800.9 643.26 a7.5 7.5 0 1 0 15 0 a7.5 7.5 0 1 0 -15 0zM800.9 568.26 a7.5 7.5 0 1 0 15 0 a7.5 7.5 0 1 0 -15 0zM930.81 -31.74 a7.5 7.5 0 1 0 15 0 a7.5 7.5 0 1 0 -15 0zM995.77 5.76 a7.5 7.5 0 1 0 15 0 a7.5 7.5 0 1 0 -15 0zM995.77 80.76 a7.5 7.5 0 1 0 15 0 a7.5 7.5 0 1 0 -15 0zM930.81 118.26 a7.5 7.5 0 1 0 15 0 a7.5 7.5 0 1 0 -15 0zM1060.72 118.26 a7.5 7.5 0 1 0 15 0 a7.5 7.5 0 1 0 -15 0zM1060.72 193.26 a7.5 7.5 0 1 0 15 0 a7.5 7.5 0 1 0 -15 0zM995.77 230.76 a7.5 7.5 0 1 0 15 0 a7.5 7.5 0 1 0 -15 0zM930.81 193.26 a7.5 7.5 0 1 0 15 0 a7.5 7.5 0 1 0 -15 0zM995.77 305.76 a7.5 7.5 0 1 0 15 0 a7.5 7.5 0 1 0 -15 0zM865.86 230.76 a7.5 7.5 0 1 0 15 0 a7.5 7.5 0 1 0 -15 0zM995.77 530.76 a7.5 7.5 0 1 0 15 0 a7.5 7.5 0 1 0 -15 0zM1060.72 568.26 a7.5 7.5 0 1 0 15 0 a7.5 7.5 0 1 0 -15 0zM1060.72 643.26 a7.5 7.5 0 1 0 15 0 a7.5 7.5 0 1 0 -15 0zM995.77 680.76 a7.5 7.5 0 1 0 15 0 a7.5 7.5 0 1 0 -15 0zM1060.72 -31.74 a7.5 7.5 0 1 0 15 0 a7.5 7.5 0 1 0 -15 0zM1125.67 5.76 a7.5 7.5 0 1 0 15 0 a7.5 7.5 0 1 0 -15 0zM1125.67 80.76 a7.5 7.5 0 1 0 15 0 a7.5 7.5 0 1 0 -15 0zM1125.67 230.76 a7.5 7.5 0 1 0 15 0 a7.5 7.5 0 1 0 -15 0zM1125.67 305.76 a7.5 7.5 0 1 0 15 0 a7.5 7.5 0 1 0 -15 0zM1060.72 343.26 a7.5 7.5 0 1 0 15 0 a7.5 7.5 0 1 0 -15 0zM1060.72 418.26 a7.5 7.5 0 1 0 15 0 a7.5 7.5 0 1 0 -15 0zM1125.67 455.76 a7.5 7.5 0 1 0 15 0 a7.5 7.5 0 1 0 -15 0zM1125.67 530.76 a7.5 7.5 0 1 0 15 0 a7.5 7.5 0 1 0 -15 0zM995.77 455.76 a7.5 7.5 0 1 0 15 0 a7.5 7.5 0 1 0 -15 0zM1190.63 568.26 a7.5 7.5 0 1 0 15 0 a7.5 7.5 0 1 0 -15 0zM1190.63 643.26 a7.5 7.5 0 1 0 15 0 a7.5 7.5 0 1 0 -15 0zM1125.67 680.76 a7.5 7.5 0 1 0 15 0 a7.5 7.5 0 1 0 -15 0zM1190.63 -31.74 a7.5 7.5 0 1 0 15 0 a7.5 7.5 0 1 0 -15 0zM1255.58 5.76 a7.5 7.5 0 1 0 15 0 a7.5 7.5 0 1 0 -15 0zM1255.58 80.76 a7.5 7.5 0 1 0 15 0 a7.5 7.5 0 1 0 -15 0zM1190.63 118.26 a7.5 7.5 0 1 0 15 0 a7.5 7.5 0 1 0 -15 0zM1320.53 118.26 a7.5 7.5 0 1 0 15 0 a7.5 7.5 0 1 0 -15 0zM1320.53 193.26 a7.5 7.5 0 1 0 15 0 a7.5 7.5 0 1 0 -15 0zM1255.58 230.76 a7.5 7.5 0 1 0 15 0 a7.5 7.5 0 1 0 -15 0zM1190.63 193.26 a7.5 7.5 0 1 0 15 0 a7.5 7.5 0 1 0 -15 0zM1255.58 305.76 a7.5 7.5 0 1 0 15 0 a7.5 7.5 0 1 0 -15 0zM1190.63 343.26 a7.5 7.5 0 1 0 15 0 a7.5 7.5 0 1 0 -15 0zM1190.63 418.26 a7.5 7.5 0 1 0 15 0 a7.5 7.5 0 1 0 -15 0zM1255.58 455.76 a7.5 7.5 0 1 0 15 0 a7.5 7.5 0 1 0 -15 0zM1255.58 530.76 a7.5 7.5 0 1 0 15 0 a7.5 7.5 0 1 0 -15 0zM1385.49 80.76 a7.5 7.5 0 1 0 15 0 a7.5 7.5 0 1 0 -15 0zM1450.44 118.26 a7.5 7.5 0 1 0 15 0 a7.5 7.5 0 1 0 -15 0zM1450.44 193.26 a7.5 7.5 0 1 0 15 0 a7.5 7.5 0 1 0 -15 0zM1385.49 230.76 a7.5 7.5 0 1 0 15 0 a7.5 7.5 0 1 0 -15 0zM1320.54 193.26 a7.5 7.5 0 1 0 15 0 a7.5 7.5 0 1 0 -15 0zM1320.54 118.26 a7.5 7.5 0 1 0 15 0 a7.5 7.5 0 1 0 -15 0zM1450.44 -31.74 a7.5 7.5 0 1 0 15 0 a7.5 7.5 0 1 0 -15 0zM1515.4 5.76 a7.5 7.5 0 1 0 15 0 a7.5 7.5 0 1 0 -15 0zM1515.4 80.76 a7.5 7.5 0 1 0 15 0 a7.5 7.5 0 1 0 -15 0zM1385.49 5.76 a7.5 7.5 0 1 0 15 0 a7.5 7.5 0 1 0 -15 0zM1515.4 230.76 a7.5 7.5 0 1 0 15 0 a7.5 7.5 0 1 0 -15 0zM1515.4 305.76 a7.5 7.5 0 1 0 15 0 a7.5 7.5 0 1 0 -15 0zM1450.44 343.26 a7.5 7.5 0 1 0 15 0 a7.5 7.5 0 1 0 -15 0zM1385.49 305.76 a7.5 7.5 0 1 0 15 0 a7.5 7.5 0 1 0 -15 0zM1580.35 343.26 a7.5 7.5 0 1 0 15 0 a7.5 7.5 0 1 0 -15 0zM1580.35 418.26 a7.5 7.5 0 1 0 15 0 a7.5 7.5 0 1 0 -15 0zM1515.4 455.76 a7.5 7.5 0 1 0 15 0 a7.5 7.5 0 1 0 -15 0zM1450.44 418.26 a7.5 7.5 0 1 0 15 0 a7.5 7.5 0 1 0 -15 0zM1515.4 530.76 a7.5 7.5 0 1 0 15 0 a7.5 7.5 0 1 0 -15 0zM1580.35 568.26 a7.5 7.5 0 1 0 15 0 a7.5 7.5 0 1 0 -15 0zM1580.35 643.26 a7.5 7.5 0 1 0 15 0 a7.5 7.5 0 1 0 -15 0zM1515.4 680.76 a7.5 7.5 0 1 0 15 0 a7.5 7.5 0 1 0 -15 0zM1450.44 643.26 a7.5 7.5 0 1 0 15 0 a7.5 7.5 0 1 0 -15 0zM1450.44 568.26 a7.5 7.5 0 1 0 15 0 a7.5 7.5 0 1 0 -15 0z" fill="#03305d"></path><path d="M82.64 55.31L125.95 80.31L125.95 130.31L82.64 155.31L39.34 130.31L39.34 80.31zM39.34 130.31L82.64 155.31L82.64 205.31L39.34 230.31L-3.96 205.31L-3.96 155.31zM82.64 505.31L125.95 530.31L125.95 580.31L82.64 605.31L39.34 580.31L39.34 530.31zM125.95 -19.69L169.25 5.31L169.25 55.31L125.95 80.31L82.64 55.31L82.64 5.31zM169.25 205.31L212.55 230.31L212.55 280.31L169.25 305.31L125.95 280.31L125.95 230.31zM255.85 205.31L299.15 230.31L299.15 280.31L255.85 305.31L212.55 280.31L212.55 230.31zM255.85 355.31L299.15 380.31L299.15 430.31L255.85 455.31L212.55 430.31L212.55 380.31zM299.15 -19.69L342.46 5.31L342.46 55.31L299.15 80.31L255.85 55.31L255.85 5.31zM342.46 355.31L385.76 380.31L385.76 430.31L342.46 455.31L299.15 430.31L299.15 380.31zM299.15 430.31L342.46 455.31L342.46 505.31L299.15 530.31L255.85 505.31L255.85 455.31zM385.76 -19.69L429.06 5.31L429.06 55.31L385.76 80.31L342.46 55.31L342.46 5.31zM429.06 55.31L472.37 80.31L472.37 130.31L429.06 155.31L385.76 130.31L385.76 80.31zM429.06 205.31L472.37 230.31L472.37 280.31L429.06 305.31L385.76 280.31L385.76 230.31zM385.76 280.31L429.06 305.31L429.06 355.31L385.76 380.31L342.46 355.31L342.46 305.31zM515.67 55.31L558.97 80.31L558.97 130.31L515.67 155.31L472.37 130.31L472.37 80.31zM472.37 130.31L515.67 155.31L515.67 205.31L472.37 230.31L429.06 205.31L429.06 155.31zM515.67 205.31L558.97 230.31L558.97 280.31L515.67 305.31L472.37 280.31L472.37 230.31zM472.37 280.31L515.67 305.31L515.67 355.31L472.37 380.31L429.06 355.31L429.06 305.31zM515.67 505.31L558.97 530.31L558.97 580.31L515.67 605.31L472.37 580.31L472.37 530.31zM558.97 -19.69L602.27 5.31L602.27 55.31L558.97 80.31L515.67 55.31L515.67 5.31zM602.27 205.31L645.58 230.31L645.58 280.31L602.27 305.31L558.97 280.31L558.97 230.31zM558.97 280.31L602.27 305.31L602.27 355.31L558.97 380.31L515.67 355.31L515.67 305.31zM602.27 355.31L645.58 380.31L645.58 430.31L602.27 455.31L558.97 430.31L558.97 380.31zM558.97 430.31L602.27 455.31L602.27 505.31L558.97 530.31L515.67 505.31L515.67 455.31zM602.27 505.31L645.58 530.31L645.58 580.31L602.27 605.31L558.97 580.31L558.97 530.31zM645.58 -19.69L688.88 5.31L688.88 55.31L645.58 80.31L602.27 55.31L602.27 5.31zM688.88 55.31L732.18 80.31L732.18 130.31L688.88 155.31L645.58 130.31L645.58 80.31zM645.58 130.31L688.88 155.31L688.88 205.31L645.58 230.31L602.27 205.31L602.27 155.31zM688.88 355.31L732.18 380.31L732.18 430.31L688.88 455.31L645.58 430.31L645.58 380.31zM688.88 505.31L732.18 530.31L732.18 580.31L688.88 605.31L645.58 580.31L645.58 530.31zM732.18 -19.69L775.48 5.31L775.48 55.31L732.18 80.31L688.88 55.31L688.88 5.31zM732.18 130.31L775.48 155.31L775.48 205.31L732.18 230.31L688.88 205.31L688.88 155.31zM732.18 430.31L775.48 455.31L775.48 505.31L732.18 530.31L688.88 505.31L688.88 455.31zM775.48 505.31L818.79 530.31L818.79 580.31L775.48 605.31L732.18 580.31L732.18 530.31zM862.09 55.31L905.39 80.31L905.39 130.31L862.09 155.31L818.79 130.31L818.79 80.31zM818.79 130.31L862.09 155.31L862.09 205.31L818.79 230.31L775.48 205.31L775.48 155.31zM862.09 205.31L905.39 230.31L905.39 280.31L862.09 305.31L818.79 280.31L818.79 230.31zM862.09 505.31L905.39 530.31L905.39 580.31L862.09 605.31L818.79 580.31L818.79 530.31zM905.39 -19.69L948.69 5.31L948.69 55.31L905.39 80.31L862.09 55.31L862.09 5.31zM948.69 55.31L992 80.31L992 130.31L948.69 155.31L905.39 130.31L905.39 80.31zM948.69 205.31L992 230.31L992 280.31L948.69 305.31L905.39 280.31L905.39 230.31zM905.39 280.31L948.69 305.31L948.69 355.31L905.39 380.31L862.09 355.31L862.09 305.31zM948.69 355.31L992 380.31L992 430.31L948.69 455.31L905.39 430.31L905.39 380.31zM905.39 430.31L948.69 455.31L948.69 505.31L905.39 530.31L862.09 505.31L862.09 455.31zM948.69 505.31L992 530.31L992 580.31L948.69 605.31L905.39 580.31L905.39 530.31zM992 -19.69L1035.3 5.31L1035.3 55.31L992 80.31L948.69 55.31L948.69 5.31zM992 130.31L1035.3 155.31L1035.3 205.31L992 230.31L948.69 205.31L948.69 155.31zM992 280.31L1035.3 305.31L1035.3 355.31L992 380.31L948.69 355.31L948.69 305.31zM1078.6 -19.69L1121.9 5.31L1121.9 55.31L1078.6 80.31L1035.3 55.31L1035.3 5.31zM1078.6 280.31L1121.9 305.31L1121.9 355.31L1078.6 380.31L1035.3 355.31L1035.3 305.31zM1208.51 55.31L1251.81 80.31L1251.81 130.31L1208.51 155.31L1165.2 130.31L1165.2 80.31zM1165.2 280.31L1208.51 305.31L1208.51 355.31L1165.2 380.31L1121.9 355.31L1121.9 305.31zM1165.2 430.31L1208.51 455.31L1208.51 505.31L1165.2 530.31L1121.9 505.31L1121.9 455.31zM1251.81 -19.69L1295.11 5.31L1295.11 55.31L1251.81 80.31L1208.51 55.31L1208.51 5.31zM1295.11 55.31L1338.41 80.31L1338.41 130.31L1295.11 155.31L1251.81 130.31L1251.81 80.31zM1251.81 280.31L1295.11 305.31L1295.11 355.31L1251.81 380.31L1208.51 355.31L1208.51 305.31zM1251.81 430.31L1295.11 455.31L1295.11 505.31L1251.81 530.31L1208.51 505.31L1208.51 455.31zM1338.41 -19.69L1381.72 5.31L1381.72 55.31L1338.41 80.31L1295.11 55.31L1295.11 5.31zM1381.72 55.31L1425.02 80.31L1425.02 130.31L1381.72 155.31L1338.41 130.31L1338.41 80.31zM1381.72 205.31L1425.02 230.31L1425.02 280.31L1381.72 305.31L1338.41 280.31L1338.41 230.31zM1381.72 355.31L1425.02 380.31L1425.02 430.31L1381.72 455.31L1338.41 430.31L1338.41 380.31zM1425.02 -19.69L1468.32 5.31L1468.32 55.31L1425.02 80.31L1381.72 55.31L1381.72 5.31zM1468.32 55.31L1511.63 80.31L1511.63 130.31L1468.32 155.31L1425.02 130.31L1425.02 80.31zM1425.02 130.31L1468.32 155.31L1468.32 205.31L1425.02 230.31L1381.72 205.31L1381.72 155.31zM1468.32 205.31L1511.63 230.31L1511.63 280.31L1468.32 305.31L1425.02 280.31L1425.02 230.31zM1425.02 280.31L1468.32 305.31L1468.32 355.31L1425.02 380.31L1381.72 355.31L1381.72 305.31zM1425.02 430.31L1468.32 455.31L1468.32 505.31L1425.02 530.31L1381.72 505.31L1381.72 455.31z" stroke="rgba(6, 80, 156, 0.93)" stroke-width="2"></path></g><defs><mask id="SvgjsMask1000"><rect width="1440" height="560" fill="#ffffff"></rect></mask></defs></svg>